# xmcd
#
# Track frame offsets:
#	150
#	11659
#	27735
#	41659
#	53025
#	73881
#	88517
#	108366
#	124842
#	136124
#	149230
#	161623
#	181601
#
# Disc length: 2579 seconds
#
# Revision: 1
# Processed by: cddbd v1.5.2PL0 Copyright (c) Steve Scherf et al.
# Submitted via: audiograbber 1.83.01
#
DISCID=b80a110d
DTITLE=Poutnici - Poutnici 2006
DYEAR=2006
DGENRE=Bluegrass
TTITLE0=I zelezo se musi kout
TTITLE1=Mas jen svuj plan
TTITLE2=Krasna barakuda
TTITLE3=Tak jsem se ptal
TTITLE4=Vlna za vlnou
TTITLE5=Ja starnu
TTITLE6=Fata morgana
TTITLE7=Ma divka
TTITLE8=Saty na raminkach
TTITLE9=Velky vuz
TTITLE10=Sifra mistra Leonarda
TTITLE11=Posledni jizda
TTITLE12=Vitr val
EXTD=CD vydane vlastnim nakladem. Natoceno zari - rijen 2006
EXTT0=
EXTT1=
EXTT2=
EXTT3=
EXTT4=
EXTT5=
EXTT6=
EXTT7=
EXTT8=
EXTT9=
EXTT10=
EXTT11=
EXTT12=
PLAYORDER=
